<?xml version="1.0" encoding="UTF-8"?><svg id="Layer_2" xmlns="http://www.w3.org/2000/svg" viewBox="0 0 800.09 600"><defs><style>.cls-1{stroke-width:0px;}</style></defs><g id="Layer_1-2"><path id="Mail" class="cls-1" d="m725.09,0H75C33.58,0,0,33.58,0,75v450c0,41.42,33.58,75,75,75h650.09c41.42,0,75-33.58,75-75V75c0-41.42-33.58-75-75-75Zm50,513.89l-236.49-236.49,236.49-150.69v387.18ZM75,25h650.09c27.57,0,50,22.43,50,50v22.08l-344.2,219.34c-18.63,11.87-42.42,11.5-60.62-.88L25,80.87v-5.87c0-27.57,22.43-50,50-50ZM25,111.07l239.82,163L25,513.89V111.07Zm700.09,463.93H75c-20.59,0-38.3-12.53-45.95-30.35l256.5-256.5,70.68,48.04c13.57,9.23,29.27,13.85,44.99,13.85s29.91-4.17,43.08-12.56l73.03-46.54,253.7,253.7c-7.65,17.82-25.36,30.35-45.95,30.35Z"/></g></svg>