<?xml version="1.0" encoding="UTF-8"?><svg id="Layer_2" xmlns="http://www.w3.org/2000/svg" viewBox="0 0 657.92 657.92"><defs><style>.cls-1{fill:none;stroke:#000;stroke-linejoin:round;stroke-width:25px;}</style></defs><g id="Layer_1-2"><path class="cls-1" d="m272.6,471.02c17.87,7.4,37.02,11.21,56.36,11.21,39.06,0,76.52-15.52,104.14-43.13,27.62-27.62,43.13-65.08,43.13-104.14s-15.52-76.52-43.13-104.14c-27.62-27.62-65.08-43.13-104.14-43.13-19.34,0-38.49,3.81-56.36,11.21-17.87,7.4-34.1,18.25-47.78,31.92-13.68,13.68-24.52,29.91-31.92,47.78-7.4,17.87-11.21,37.02-11.21,56.36s3.81,38.49,11.21,56.36c7.4,17.87,18.25,34.1,31.92,47.78,13.68,13.67,29.91,24.52,47.78,31.92Zm-48.11-240.53c27.71-27.71,65.28-43.27,104.46-43.27s76.76,15.56,104.47,43.27c27.71,27.71,43.27,65.28,43.27,104.47s-15.56,76.76-43.27,104.46c-27.71,27.71-65.28,43.27-104.47,43.27s-76.76-15.56-104.46-43.27c-27.71-27.71-43.27-65.28-43.27-104.46s15.57-76.76,43.27-104.47Zm335.39-77.67c0,11.21-4.46,21.97-12.38,29.9-7.93,7.93-18.69,12.39-29.9,12.39s-21.97-4.46-29.9-12.39c-7.93-7.93-12.39-18.69-12.39-29.9s4.46-21.97,12.39-29.9c7.93-7.93,18.68-12.39,29.9-12.39s21.97,4.46,29.9,12.39c7.93,7.93,12.38,18.69,12.38,29.9Z"/><rect class="cls-1" x="12.5" y="12.5" width="632.92" height="632.92" rx="63.76" ry="63.76"/></g></svg>